<?xml version="1.0" encoding="UTF-8"?>
<svg version="1.1" xmlns="http://www.w3.org/2000/svg" width="160" height="71">
<path d="M0 0 C4.02666486 0.38904974 5.14632304 1.49349537 7.984375 4.3125 C12.85049597 8.97894732 17.93313265 13.14723815 23.234375 17.3125 C23.234375 11.7025 23.234375 6.0925 23.234375 0.3125 C27.27676072 0.2043827 31.3162435 0.12511487 35.359375 0.0625 C36.50148437 0.02898438 37.64359375 -0.00453125 38.8203125 -0.0390625 C49.43099631 -0.16244254 49.43099631 -0.16244254 54.234375 4.3125 C56.13361126 7.36779311 56.234375 9.19776782 56.234375 12.8125 C54.89590514 17.49714451 53.18645649 18.57023937 49.234375 21.3125 C48.244375 21.8075 48.244375 21.8075 47.234375 22.3125 C48.20890625 23.03566406 48.20890625 23.03566406 49.203125 23.7734375 C50.0384375 24.40507812 50.87375 25.03671875 51.734375 25.6875 C52.5696875 26.31398438 53.405 26.94046875 54.265625 27.5859375 C54.9153125 28.15570313 55.565 28.72546875 56.234375 29.3125 C56.234375 29.9725 56.234375 30.6325 56.234375 31.3125 C50.87549646 32.40614868 47.28950146 32.49143382 42.234375 30.3125 C39.05999212 27.81870481 36.12343214 25.12949449 33.234375 22.3125 C32.904375 25.2825 32.574375 28.2525 32.234375 31.3125 C29.38323521 31.8703317 28.00143292 32.05201459 25.234375 31.3125 C22.4616799 29.21068671 20.03534344 26.92605924 17.56640625 24.4765625 C15.44879774 22.28589167 15.44879774 22.28589167 13.24609375 21.3984375 C11.234375 20.3125 11.234375 20.3125 6.234375 14.3125 C5.904375 19.9225 5.574375 25.5325 5.234375 31.3125 C2.594375 31.3125 -0.045625 31.3125 -2.765625 31.3125 C-2.93289937 27.05857233 -3.09349258 22.80446191 -3.24780273 18.55004883 C-3.30128737 17.10173699 -3.35662159 15.65349225 -3.41381836 14.20532227 C-3.49555012 12.12791418 -3.57070268 10.0503583 -3.64453125 7.97265625 C-3.6916626 6.72105713 -3.73879395 5.46945801 -3.78735352 4.17993164 C-3.75849959 0.37218626 -3.75541119 0.42434025 0 0 Z M32.234375 8.3125 C32.234375 9.9625 32.234375 11.6125 32.234375 13.3125 C37.184375 13.3125 42.134375 13.3125 47.234375 13.3125 C46.904375 11.6625 46.574375 10.0125 46.234375 8.3125 C41.614375 8.3125 36.994375 8.3125 32.234375 8.3125 Z " fill="#0868C7" transform="translate(50.765625,5.6875)"/>
<path d="M0 0 C3.05203376 0.39283603 5.02833614 0.23534629 7.97265625 -0.74609375 C8.61203125 -0.41609375 9.25140625 -0.08609375 9.91015625 0.25390625 C12.45417014 1.48736753 13.3340227 0.95754186 15.97265625 0.25390625 C16.96265625 1.24390625 16.96265625 1.24390625 17.97265625 2.25390625 C18.30265625 1.59390625 18.63265625 0.93390625 18.97265625 0.25390625 C19.96265625 0.25390625 20.95265625 0.25390625 21.97265625 0.25390625 C21.97265625 3.88390625 21.97265625 7.51390625 21.97265625 11.25390625 C20.65265625 10.92390625 19.33265625 10.59390625 17.97265625 10.25390625 C17.47765625 9.26390625 17.47765625 9.26390625 16.97265625 8.25390625 C16.64265625 9.24390625 16.31265625 10.23390625 15.97265625 11.25390625 C14.98265625 11.25390625 13.99265625 11.25390625 12.97265625 11.25390625 C12.47765625 10.26390625 12.47765625 10.26390625 11.97265625 9.25390625 C10.98265625 9.91390625 9.99265625 10.57390625 8.97265625 11.25390625 C6.96718936 10.95521969 4.9668842 10.62019302 2.97265625 10.25390625 C0.7856224 10.63297907 0.7856224 10.63297907 -1.02734375 11.25390625 C-16.02734375 11.25390625 -16.02734375 11.25390625 -18.65234375 10.69140625 C-19.43609375 10.54703125 -20.21984375 10.40265625 -21.02734375 10.25390625 C-21.35734375 10.58390625 -21.68734375 10.91390625 -22.02734375 11.25390625 C-23.88021877 11.32617127 -25.73568253 11.33771845 -27.58984375 11.31640625 C-28.60175781 11.30738281 -29.61367187 11.29835938 -30.65625 11.2890625 C-31.82994141 11.27166016 -31.82994141 11.27166016 -33.02734375 11.25390625 C-33.35734375 10.59390625 -33.68734375 9.93390625 -34.02734375 9.25390625 C-34.35734375 9.91390625 -34.68734375 10.57390625 -35.02734375 11.25390625 C-36.01734375 11.25390625 -37.00734375 11.25390625 -38.02734375 11.25390625 C-38.35734375 9.93390625 -38.68734375 8.61390625 -39.02734375 7.25390625 C-40.34734375 7.25390625 -41.66734375 7.25390625 -43.02734375 7.25390625 C-43.02734375 8.57390625 -43.02734375 9.89390625 -43.02734375 11.25390625 C-44.34734375 10.92390625 -45.66734375 10.59390625 -47.02734375 10.25390625 C-47.02734375 6.95390625 -47.02734375 3.65390625 -47.02734375 0.25390625 C-45.27091553 0.26176147 -45.27091553 0.26176147 -43.47900391 0.26977539 C-39.14421347 0.28784383 -34.80942638 0.29934504 -30.47460938 0.30883789 C-28.596674 0.31387388 -26.71874255 0.32070296 -24.84082031 0.3293457 C-22.14517243 0.34144338 -19.44957628 0.34714182 -16.75390625 0.3515625 C-15.91115143 0.35672379 -15.06839661 0.36188507 -14.20010376 0.36720276 C-9.0710004 0.36769901 -5.10400072 -0.75367487 0 0 Z M1.97265625 2.25390625 C2.97265625 4.25390625 2.97265625 4.25390625 2.97265625 4.25390625 Z M-27.02734375 3.25390625 C-27.02734375 3.58390625 -27.02734375 3.91390625 -27.02734375 4.25390625 C-25.37734375 4.25390625 -23.72734375 4.25390625 -22.02734375 4.25390625 C-22.02734375 3.92390625 -22.02734375 3.59390625 -22.02734375 3.25390625 C-23.67734375 3.25390625 -25.32734375 3.25390625 -27.02734375 3.25390625 Z M-19.02734375 3.25390625 C-18.69734375 4.90390625 -18.36734375 6.55390625 -18.02734375 8.25390625 C-16.37734375 7.59390625 -14.72734375 6.93390625 -13.02734375 6.25390625 C-13.35734375 5.59390625 -13.68734375 4.93390625 -14.02734375 4.25390625 C-16.5546761 3.59835506 -16.5546761 3.59835506 -19.02734375 3.25390625 Z M5.97265625 3.25390625 C6.30265625 4.90390625 6.63265625 6.55390625 6.97265625 8.25390625 C7.63265625 7.92390625 8.29265625 7.59390625 8.97265625 7.25390625 C8.97265625 5.93390625 8.97265625 4.61390625 8.97265625 3.25390625 C7.98265625 3.25390625 6.99265625 3.25390625 5.97265625 3.25390625 Z M-31.02734375 6.25390625 C-30.02734375 8.25390625 -30.02734375 8.25390625 -30.02734375 8.25390625 Z " fill="#1666B8" transform="translate(116.02734375,45.74609375)"/>
<path d="M0 0 C1.9375 0.375 1.9375 0.375 4 1 C4.33 1.66 4.66 2.32 5 3 C5.33 2.01 5.66 1.02 6 0 C10.62 0 15.24 0 20 0 C20 2.31 20 4.62 20 7 C20.66 7 21.32 7 22 7 C22 4.69 22 2.38 22 0 C23.79093191 -0.08086147 25.58289628 -0.13912702 27.375 -0.1875 C28.87160156 -0.23970703 28.87160156 -0.23970703 30.3984375 -0.29296875 C31.25695313 -0.19628906 32.11546875 -0.09960938 33 0 C33.66 0.99 34.32 1.98 35 3 C35.66 2.01 36.32 1.02 37 0 C38.32 0 39.64 0 41 0 C41.495 0.99 41.495 0.99 42 2 C42.33 1.34 42.66 0.68 43 0 C44.32 0 45.64 0 47 0 C47 2.31 47 4.62 47 7 C48.32 7 49.64 7 51 7 C51 8.32 51 9.64 51 11 C47.7 11 44.4 11 41 11 C40.505 9.515 40.505 9.515 40 8 C39.62875 8.495 39.2575 8.99 38.875 9.5 C36.25305607 11.59755514 34.26157528 11.21743835 31 11 C30.67 10.34 30.34 9.68 30 9 C29.67 9.66 29.34 10.32 29 11 C28.443125 10.814375 27.88625 10.62875 27.3125 10.4375 C24.58278055 9.92106659 22.68864419 10.37954365 20 11 C19.01 11 18.02 11 17 11 C16.13246094 11.03480469 15.26492187 11.06960937 14.37109375 11.10546875 C13.40300781 11.13253906 12.43492188 11.15960938 11.4375 11.1875 C10.46683594 11.22230469 9.49617188 11.25710937 8.49609375 11.29296875 C7.67238281 11.19628906 6.84867188 11.09960938 6 11 C5.34 10.01 4.68 9.02 4 8 C3.67 8.99 3.34 9.98 3 11 C2.01 11 1.02 11 0 11 C-0.84098656 6.98195309 -1.05404945 3.98196457 0 0 Z M12 3 C13.32 3.33 14.64 3.66 16 4 C16.33 5.32 16.66 6.64 17 8 C17 6.35 17 4.7 17 3 C15.35 3 13.7 3 12 3 Z M34 4 C33.67 5.32 33.34 6.64 33 8 C33.66 7.67 34.32 7.34 35 7 C34.67 6.01 34.34 5.02 34 4 Z M43 6 C44 8 44 8 44 8 Z " fill="#1567BB" transform="translate(16,46)"/>
<path d="M0 0 C1.09828125 0.23203125 1.09828125 0.23203125 2.21875 0.46875 C5.20267779 1.03871373 7.49558208 0.87133255 10.5 0.5 C13.31229363 0.15241315 15.54688284 -0.09747731 18.32421875 0.5 C22.70700146 1.31897254 27.08416744 0.6871879 31.49804688 0.31640625 C36.50366145 -0.05171967 41.03517282 0.23704351 46 1 C46 2.98 46 4.96 46 7 C30.33333333 7 14.66666667 7 -1 7 C-1.04254356 5.00045254 -1.04080783 2.99958364 -1 1 C-0.67 0.67 -0.34 0.34 0 0 Z M15 3 C16 5 16 5 16 5 Z M37 3 C38 5 38 5 38 5 Z " fill="#1B65B2" transform="translate(75,60)"/>
<path d="M0 0 C5.38439976 0.44225049 10.06305819 0.31722182 15.375 -0.5 C16.035 -0.17 16.695 0.16 17.375 0.5 C17.375 2.48 17.375 4.46 17.375 6.5 C9.785 6.5 2.195 6.5 -5.625 6.5 C-5.625 5.18 -5.625 3.86 -5.625 2.5 C-6.285 2.5 -6.945 2.5 -7.625 2.5 C-7.625 3.82 -7.625 5.14 -7.625 6.5 C-12.245 6.5 -16.865 6.5 -21.625 6.5 C-22.87046405 4.00907189 -22.4017578 3.08919267 -21.625 0.5 C-20.70976563 0.51160156 -19.79453125 0.52320313 -18.8515625 0.53515625 C-17.66304687 0.54417969 -16.47453125 0.55320313 -15.25 0.5625 C-13.47496094 0.57990234 -13.47496094 0.57990234 -11.6640625 0.59765625 C-7.41838389 0.46122699 -4.47475029 -0.42160388 0 0 Z M14.375 2.5 C15.375 4.5 15.375 4.5 15.375 4.5 Z " fill="#1D66B1" transform="translate(54.625,60.5)"/>
<path d="M0 0 C5.28 0 10.56 0 16 0 C16 0.33 16 0.66 16 1 C14.02 1 12.04 1 10 1 C10.53725895 4.37705625 11.11064623 7.696686 12 11 C11.01 11 10.02 11 9 11 C8.67 9.68 8.34 8.36 8 7 C6.68 7 5.36 7 4 7 C4 8.32 4 9.64 4 11 C2.68 10.67 1.36 10.34 0 10 C0 6.7 0 3.4 0 0 Z " fill="#1B66B3" transform="translate(69,46)"/>
<path d="M0 0 C2.784375 -0.020625 5.56875 -0.04125 8.4375 -0.0625 C9.75512329 -0.07615601 9.75512329 -0.07615601 11.09936523 -0.09008789 C13.06645974 -0.09723091 15.03353621 -0.05031893 17 0 C18 1 18 1 18.0625 3.5625 C18.041875 4.366875 18.02125 5.17125 18 6 C16 3 16 3 16 1 C11.38 1 6.76 1 2 1 C2.33 2.98 2.66 4.96 3 7 C3.02172852 9.24169922 3.02172852 9.24169922 2.87890625 11.3046875 C2.83056641 12.05234375 2.78222656 12.8 2.73242188 13.5703125 C2.67634766 14.33085937 2.62027344 15.09140625 2.5625 15.875 C2.51029297 16.65875 2.45808594 17.4425 2.40429688 18.25 C2.27571149 20.1670912 2.13871383 22.08361503 2 24 C-0.31 24 -2.62 24 -5 24 C-5.33 23.34 -5.66 22.68 -6 22 C-4.02 22.33 -2.04 22.66 0 23 C0 15.41 0 7.82 0 0 Z " fill="#1F69B3" transform="translate(81,13)"/>
<path d="M0 0 C1.32 0 2.64 0 4 0 C4 2.31 4 4.62 4 7 C5.32 7 6.64 7 8 7 C8 8.32 8 9.64 8 11 C4.7 11 1.4 11 -2 11 C-2.33 10.34 -2.66 9.68 -3 9 C-2.34 9 -1.68 9 -1 9 C-0.67 6.03 -0.34 3.06 0 0 Z M0 6 C1 8 1 8 1 8 Z " fill="#236CB4" transform="translate(59,46)"/>
<path d="M0 0 C0.66 0 1.32 0 2 0 C2 1.32 2 2.64 2 4 C2.66 4 3.32 4 4 4 C4 4.66 4 5.32 4 6 C2.68 6 1.36 6 0 6 C0 6.66 0 7.32 0 8 C-3.63 8 -7.26 8 -11 8 C-10.34 7.67 -9.68 7.34 -9 7 C-9 6.34 -9 5.68 -9 5 C-8.34 5 -7.68 5 -7 5 C-7 5.66 -7 6.32 -7 7 C-5.02 7 -3.04 7 -1 7 C-1 6.34 -1 5.68 -1 5 C-2.32 5 -3.64 5 -5 5 C-5 4.34 -5 3.68 -5 3 C-3.68 3 -2.36 3 -1 3 C-0.67 2.01 -0.34 1.02 0 0 Z " fill="#2467AC" transform="translate(94,49)"/>
<path d="M0 0 C0.66 0 1.32 0 2 0 C2 3.3 2 6.6 2 10 C1.01 9.01 0.02 8.02 -1 7 C-1.99 6.67 -2.98 6.34 -4 6 C-4.33 6.99 -4.66 7.98 -5 9 C-5 6.36 -5 3.72 -5 1 C-3.68 1.33 -2.36 1.66 -1 2 C-0.67 1.34 -0.34 0.68 0 0 Z " fill="#0C66C2" transform="translate(135,46)"/>
<path d="M0 0 C1.93166016 0.01740234 1.93166016 0.01740234 3.90234375 0.03515625 C5.19269531 0.04417969 6.48304687 0.05320312 7.8125 0.0625 C8.81152344 0.07410156 9.81054688 0.08570312 10.83984375 0.09765625 C10.50984375 0.75765625 10.17984375 1.41765625 9.83984375 2.09765625 C5.87984375 2.09765625 1.91984375 2.09765625 -2.16015625 2.09765625 C-2.49015625 4.07765625 -2.82015625 6.05765625 -3.16015625 8.09765625 C-3.49015625 8.09765625 -3.82015625 8.09765625 -4.16015625 8.09765625 C-4.20257348 5.7647085 -4.20108562 3.43063058 -4.16015625 1.09765625 C-3.16015625 0.09765625 -3.16015625 0.09765625 0 0 Z " fill="#1267BE" transform="translate(87.16015625,18.90234375)"/>
<path d="M0 0 C1.65 0 3.3 0 5 0 C5 1.98 5 3.96 5 6 C3.35 5.67 1.7 5.34 0 5 C0 3.33333333 0 1.66666667 0 0 Z " fill="#2065AD" transform="translate(84,61)"/>
<path d="M0 0 C0.33 0 0.66 0 1 0 C1 3.3 1 6.6 1 10 C3.31 10 5.62 10 8 10 C8 10.33 8 10.66 8 11 C4.7 11 1.4 11 -2 11 C-2.33 10.34 -2.66 9.68 -3 9 C-2.34 9 -1.68 9 -1 9 C-0.67 6.03 -0.34 3.06 0 0 Z " fill="#2868A9" transform="translate(59,46)"/>
<path d="M0 0 C0.99 0.495 0.99 0.495 2 1 C1.67 1.99 1.34 2.98 1 4 C2.98 3.67 4.96 3.34 7 3 C7 3.66 7 4.32 7 5 C6.34 5 5.68 5 5 5 C4.67 5.66 4.34 6.32 4 7 C3.34 6.67 2.68 6.34 2 6 C2 6.66 2 7.32 2 8 C1.34 8 0.68 8 0 8 C0 5.36 0 2.72 0 0 Z " fill="#0967C5" transform="translate(43,47)"/>
<path d="M0 0 C1.65 0 3.3 0 5 0 C5.33 0.99 5.66 1.98 6 3 C5.34 3 4.68 3 4 3 C4 3.66 4 4.32 4 5 C2.68 4.67 1.36 4.34 0 4 C0 2.68 0 1.36 0 0 Z " fill="#1565B8" transform="translate(33,61)"/>
<path d="M0 0 C0.33 0 0.66 0 1 0 C0.93489583 2.01822917 0.86979167 4.03645833 0.8046875 6.0546875 C0.81668311 8.23863645 0.81668311 8.23863645 3 10 C0.625 10.625 0.625 10.625 -2 11 C-2.66 10.34 -3.32 9.68 -4 9 C-3.34 9 -2.68 9 -2 9 C-2 8.34 -2 7.68 -2 7 C-1.34 7 -0.68 7 0 7 C0 4.69 0 2.38 0 0 Z " fill="#2466AB" transform="translate(38,46)"/>
<path d="M0 0 C1.65 0 3.3 0 5 0 C4.01 0.33 3.02 0.66 2 1 C2.185625 1.598125 2.37125 2.19625 2.5625 2.8125 C3 5 3 5 2 8 C1.34 8 0.68 8 0 8 C0 5.36 0 2.72 0 0 Z " fill="#0866C6" transform="translate(70,47)"/>
<path d="M0 0 C1.98 0 3.96 0 6 0 C6 2.31 6 4.62 6 7 C5.34 7 4.68 7 4 7 C3.67 5.02 3.34 3.04 3 1 C2.01 0.67 1.02 0.34 0 0 Z " fill="#0C66C3" transform="translate(122,47)"/>
<path d="M0 0 C0.99 0.33 1.98 0.66 3 1 C3 1.99 3 2.98 3 4 C3.66 4.33 4.32 4.66 5 5 C3.02 5 1.04 5 -1 5 C-1.33 3.68 -1.66 2.36 -2 1 C-1.34 0.67 -0.68 0.34 0 0 Z " fill="#1F67B2" transform="translate(48,52)"/>
<path d="M0 0 C0.99 0 1.98 0 3 0 C2.4140625 6.15234375 2.4140625 6.15234375 2 8 C1.01 8.495 1.01 8.495 0 9 C0 6.03 0 3.06 0 0 Z " fill="#0D67C1" transform="translate(60,46)"/>
</svg>
